<?xml version="1.0" standalone="no"?>
<!DOCTYPE svg PUBLIC "-//W3C//DTD SVG 20010904//EN"
 "http://www.w3.org/TR/2001/REC-SVG-20010904/DTD/svg10.dtd">
<svg version="1.0" xmlns="http://www.w3.org/2000/svg"
 width="280.000000pt" height="280.000000pt" viewBox="0 0 280.000000 280.000000"
 preserveAspectRatio="xMidYMid meet">
<metadata>
Created by potrace 1.14, written by Peter Selinger 2001-2017
</metadata>
<g transform="translate(0.000000,280.000000) scale(0.100000,-0.100000)"
fill="#000000" stroke="none">
<path d="M1386 1889 c-83 -20 -126 -74 -126 -158 0 -42 5 -56 31 -85 16 -19
40 -38 52 -42 19 -6 18 -8 -15 -25 -95 -49 -116 -181 -41 -269 42 -51 165 -75
256 -49 50 13 103 61 118 106 15 47 6 128 -18 161 -11 15 -37 37 -59 49 -21
13 -34 23 -27 23 26 0 83 62 93 101 35 129 -101 226 -264 188z m134 -74 c59
-31 69 -107 21 -156 -26 -25 -37 -29 -86 -29 -49 0 -60 4 -86 29 -32 32 -38
71 -17 117 23 49 110 69 168 39z m-1 -268 c39 -20 64 -61 64 -107 0 -81 -43
-120 -134 -120 -45 0 -55 4 -85 34 -29 29 -34 41 -34 83 0 29 7 58 16 72 32
45 121 65 173 38z"/>
<path d="M600 1570 l0 -310 123 0 c222 0 317 37 372 144 28 55 30 67 30 166 0
99 -2 111 -30 166 -55 107 -150 144 -372 144 l-123 0 0 -310z m337 212 c71
-37 103 -102 103 -212 0 -168 -64 -230 -247 -238 l-103 -5 0 243 0 243 103 -5
c78 -4 112 -10 144 -26z"/>
<path d="M1730 1845 l0 -35 110 0 110 0 0 -281 0 -280 43 3 42 3 3 278 2 277
105 0 105 0 0 35 0 35 -260 0 -260 0 0 -35z"/>
</g>
</svg>
